PathFileType	4	(X/Y/Z)	C:/Users/beibeiliu/ov580/test_trc\sequence.27_training_dense_left.trc
DataRate	CameraRate	NumFrames	NumMarkers	Units	OrigDataRate	OrigDataStartFrame	OrigNumFrames
120	120	19	19	mm	120	1	331
Frame#	Time	ThumbCMC			ThumbMCP			ThumbIP			ThumbTip			IndexMCP			IndexPIP			IndexTip			MiddleMCP			MiddlePIP			MiddleTip			RingMCP			RingPIP			RingTip			PinkyMCP			PinkyPIP			PinkyTip			BackHand1			BackHand2			BackHand3	
		X0	Y0	Z0	X1	Y1	Z1	X2	Y2	Z2	X3	Y3	Z3	X4	Y4	Z4	X5	Y5	Z5	X6	Y6	Z6	X7	Y7	Z7	X8	Y8	Z8	X9	Y9	Z9	X10	Y10	Z10	X11	Y11	Z11	X12	Y12	Z12	X13	Y13	Z13	X14	Y14	Z14	X15	Y15	Z15	X16	Y16	Z16	X17	Y17	Z17	X18	Y18	Z18	
0	0	-171.977	7.71051	46.218	-156.196	0.909004	27.348	-141.226	0.962701	8.3634	-129.461	-0.417203	-9.94649	-175.737	6.0796	-23.412	-168.37	0.551377	-42.9622	-161.139	-3.11622	-69.263	-195.005	3.14388	-32.2973	-193.614	-1.64807	-54.5599	-193.67	-6.03127	-79.1659	-213.936	1.15376	-28.3795	-214.815	-1.62652	-45.8431	-215.95	-5.35148	-66.8533	-238.547	-3.32489	-13.615	-241.851	-5.69816	-27.5181	-245.063	-4.00912	-48.2587	-218.043	16.2333	13.3661	-221.297	22.6674	43.3975	-194.634	23.424	28.3407	
1	0.00833333	-173.969	6.96657	43.3451	-156.162	1.74537	25.7753	-146.933	-0.0760521	6.56844	-130.832	-1.28028	-10.0593	-176.771	6.24499	-25.5126	-170.328	0.921108	-47.9859	-164.077	-3.90722	-70.9828	-194.711	3.19617	-35.1833	-193.56	-0.752189	-52.5867	-194.443	-5.84449	-79.8452	-219.237	1.76252	-27.1935	-214.529	-1.95526	-46.7039	-216.046	-4.93216	-72.3313	-236.179	-2.9586	-10.5835	-244.525	-5.14247	-32.5026	-248.787	-2.25168	-46.1052	-221.257	15.7268	16.5646	-220.609	23.793	40.2684	-194.125	22.6287	26.4004	
2	0.0166667	-174.26	6.46614	44.7222	-158.364	0.871451	27.5891	-142.913	0.51676	3.86737	-133.656	-1.68865	-6.93349	-171.286	5.99673	-28.4477	-170.907	1.19583	-46.3027	-160.999	-2.678	-66.9728	-197.51	4.63073	-32.7206	-193.808	-0.916562	-54.2125	-191.606	-4.93509	-78.342	-214.277	2.72887	-25.4065	-214.893	-2.36244	-51.5501	-217.113	-5.17058	-71.663	-238.051	-1.43156	-12.144	-244.265	-4.90025	-30.5536	-247.429	-3.72008	-47.2112	-221.816	16.9283	15.4558	-219.794	22.6669	39.8804	-195.917	22.9579	28.671	
3	0.025	-170.635	7.96365	40.0839	-158.34	1.41415	24.118	-144.516	0.372344	5.28214	-132.425	-1.75418	-5.64335	-173.983	6.09801	-28.6493	-166.124	1.83502	-49.4538	-166.442	-2.97279	-67.2488	-195.084	4.99781	-31.5711	-193.693	-1.03454	-56.7713	-194.058	-5.18974	-79.7177	-213.605	2.56266	-28.6299	-215.634	-2.27404	-50.6057	-214.791	-4.35575	-66.9839	-233.149	-1.55676	-11.9674	-239.883	-2.84261	-31.4885	-247.863	-0.723698	-46.9343	-219.456	15.8861	12.3392	-223.271	22.916	37.8426	-193.903	23.412	25.3366	
4	0.0333333	-175.34	6.46079	43.0811	-156.731	1.79517	22.5505	-141.928	0.369814	7.13534	-129.474	-1.44692	-7.19789	-171.664	7.19726	-25.3247	-168.326	2.47539	-44.9508	-161.626	-1.59016	-66.3512	-192.293	4.92847	-37.3407	-190.653	-1.92076	-58.8703	-191.612	-4.23678	-78.2645	-218.282	0.961406	-28.1817	-214.335	-2.1351	-52.3486	-216.682	-5.73035	-71.8535	-238.975	-2.88282	-13.8458	-238.511	-4.0212	-30.8032	-248.258	-1.24784	-47.4292	-220.472	17.1112	12.39	-217.713	23.3774	36.6052	-194.795	22.0849	25.0651	
5	0.0416667	-174.369	6.36826	39.1211	-157.686	1.23211	23.3795	-143.879	0.168891	3.03762	-129.068	-2.4226	-8.55544	-170.702	6.41242	-24.0831	-170.103	0.374936	-49.3143	-161.915	-2.80652	-66.4346	-196.006	3.10754	-36.6354	-191.299	-1.47847	-56.4658	-194.059	-5.88551	-79.8089	-218.451	0.69773	-28.5356	-217.026	-3.09245	-52.4266	-217.73	-6.02456	-69.2141	-236.492	-2.00334	-14.2438	-238.283	-4.46848	-29.2882	-248.083	-4.23409	-47.4148	-217.223	16.8335	15.8852	-220.16	22.0294	38.1966	-191.496	21.833	26.6282	
6	0.05	-171.796	6.65114	39.8833	-154.84	0.999686	23.0311	-145.403	-2.7924	6.86544	-132.107	-3.47282	-8.2758	-173.805	4.73758	-29.6335	-167.15	-0.033209	-44.8146	-164.218	-4.06193	-67.1652	-196.555	2.33139	-37.259	-191.099	-1.99097	-54.1978	-191.648	-5.82256	-81.6048	-213.487	1.02274	-26.251	-215.416	-3.43769	-49.5461	-213.543	-5.37574	-73.1246	-238.409	-3.17241	-14.0989	-241.972	-5.42182	-34.224	-247.901	-4.18589	-49.3957	-215.854	14.4277	16.4203	-221.596	21.8773	39.5548	-194.72	23.0088	27.3269	
7	0.0583333	-172.146	6.36801	44.3012	-155.641	-0.329131	25.6392	-141.015	-0.681315	3.83546	-128.497	-3.23077	-7.39403	-172.525	5.05943	-28.6247	-165.597	-1.48849	-49.6829	-164.85	-4.6763	-67.7619	-194.327	1.77935	-36.9985	-191.635	-3.28847	-55.3667	-187.537	-7.84682	-83.9714	-212.886	0.722932	-27.8145	-217.363	-4.50122	-50.2929	-215.724	-7.13408	-69.7091	-238.118	-2.8958	-16.8495	-239.409	-5.82533	-31.2096	-247.235	-5.41096	-52.6223	-220.918	14.1509	15.5461	-220.917	21.236	37.3684	-191.387	23.59	26.2837	
8	0.0666667	-171.864	4.98942	40.9789	-156.117	-1.00943	22.1724	-145.237	-2.64187	4.20883	-129.739	-3.29607	-11.814	-172.264	4.93385	-26.5231	-166.331	-1.46329	-50.8948	-158.445	-6.33517	-71.7357	-193.613	2.65181	-33.9807	-193.313	-4.02105	-59.3246	-189.813	-7.68362	-81.748	-214.499	0.267816	-29.8391	-216.401	-4.30467	-50.0255	-212.115	-7.28612	-72.5105	-237.007	-3.59591	-12.6339	-238.563	-6.09982	-30.3797	-246.944	-5.16096	-50.3574	-217.59	13.3675	13.8546	-221.322	20.5617	40.0338	-192.786	20.7779	27.0114	
9	0.075	-173.814	4.61339	41.7248	-152.13	-0.830273	23.0315	-140.399	-2.13628	6.67751	-132.028	-5.4604	-9.15418	-170.666	4.01224	-28.1066	-169.097	-1.06005	-47.1467	-162.263	-5.29911	-70.0733	-191.562	2.25375	-36.7377	-188.957	-2.89307	-57.1912	-188.741	-7.1462	-80.5247	-211.007	0.596184	-31.4078	-217.085	-3.85744	-48.9031	-213.711	-7.81727	-71.1246	-232.092	-3.55892	-13.3205	-240.138	-6.71832	-33.2581	-244.573	-6.02016	-50.4762	-220.12	13.7543	13.5749	-220.205	20.9461	35.3336	-191.593	21.2734	27.1303	
10	0.0833333	-171.086	5.68933	39.262	-154.026	-0.768443	22.691	-141.294	-2.66682	3.7226	-127.893	-4.108	-10.9785	-172.696	2.79134	-30.1451	-165.995	-2.04141	-48.3855	-162.35	-6.38765	-72.8772	-192.491	1.49141	-39.0589	-189.768	-3.71522	-56.8167	-192.392	-7.40543	-81.3299	-217.128	-1.13383	-30.033	-216.189	-4.3184	-49.8223	-212.965	-6.91044	-73.085	-232.155	-4.0864	-14.2401	-239.427	-6.18498	-33.3633	-244.577	-6.65888	-50.4252	-219.585	13.5194	13.3341	-218.935	19.4989	34.0035	-193.159	21.6462	24.8775	
11	0.0916667	-174.473	3.35693	41.0276	-151.596	-1.29231	24.4477	-139.558	-2.67117	5.35859	-131.155	-5.41641	-10.2696	-170.889	2.65187	-30.7068	-165.427	-2.57625	-51.1057	-162.671	-5.79014	-69.5102	-192.715	1.49628	-36.5113	-191.791	-3.77779	-59.5252	-190.349	-7.21522	-85.2522	-215.563	-1.02288	-28.4732	-212.72	-4.60228	-49.6455	-214.952	-7.01779	-70.048	-232.188	-3.6232	-19.9805	-236.932	-6.8681	-32.2057	-247.426	-6.50238	-51.7407	-219.008	14.6783	10.7458	-221.273	20.6421	35.1287	-189.74	19.1931	23.322	
12	0.1	-174.544	4.66139	36.6377	-157.227	-2.93404	21.5325	-139.448	-3.70971	5.07957	-127.684	-4.63292	-9.08722	-169.955	2.53406	-31.7198	-163.582	-2.10079	-49.859	-161.157	-5.32238	-68.2922	-190.738	0.904006	-38.3562	-191.029	-4.60974	-61.0002	-191.596	-6.93717	-81.7639	-217.012	-0.961087	-30.4005	-211.402	-4.62826	-53.0403	-213.604	-7.47746	-71.978	-235.089	-5.09998	-15.1483	-238.625	-7.73941	-31.4478	-245.736	-6.08514	-53.3899	-214.688	12.2409	9.79257	-218.929	19.9741	37.4472	-192.342	18.8907	25.2375	
13	0.108333	-173.433	3.60775	40.3381	-153.231	-1.60745	21.2461	-139.851	-2.39595	2.94875	-127.915	-5.17089	-11.0791	-174.896	3.65042	-29.2457	-167.298	-0.397939	-48.0109	-161.1	-4.78715	-72.5971	-192.776	1.72909	-40.5719	-189.596	-3.83825	-60.5788	-189.263	-6.44766	-81.2968	-214.453	-0.649139	-32.7455	-213.817	-4.75578	-49.8366	-212.723	-7.26207	-70.6922	-233.199	-3.78565	-20.5292	-240.741	-8.34217	-37.273	-244.021	-6.85429	-54.0888	-216.345	12.1491	9.56549	-219.335	21.4188	34.4431	-193.251	22.0161	26.5369	
14	0.116667	-172.417	5.74679	39.5478	-155.357	-1.81249	24.0957	-140.581	-3.60869	5.34875	-130.631	-5.78574	-10.0888	-174.917	4.7728	-32.3046	-168.955	0.329973	-50.1376	-161.718	-4.00136	-72.054	-192.568	2.78088	-37.227	-189.406	-2.79838	-59.1013	-190.79	-6.49584	-86.818	-214.626	-0.292291	-32.0577	-214.436	-4.33323	-52.5429	-212.229	-7.37105	-70.4049	-237.826	-4.75759	-19.98	-240.567	-7.53337	-33.0544	-247.205	-6.93606	-55.7784	-221.613	13.8395	11.7773	-219.529	18.8609	34.2969	-195.281	21.4988	23.7112	
15	0.125	-172.902	6.32613	38.2008	-156.144	-1.66476	19.8475	-140.297	-2.92023	0.123072	-129.672	-7.85181	-8.99155	-173.082	8.00039	-30.7814	-165.119	3.64758	-50.459	-162.9	-0.107716	-75.7248	-196.068	5.09746	-37.5179	-188.634	-0.76619	-62.5178	-189.754	-3.55112	-83.6575	-216.357	1.46268	-31.2655	-213.26	-3.41097	-51.6349	-214.27	-6.84887	-72.3477	-238.068	-3.89426	-19.5411	-238.397	-6.94441	-35.9008	-243.198	-6.49127	-56.1495	-219.074	14.1542	8.76567	-220.741	20.8508	34.4713	-193.529	24.8138	20.8611	
16	0.133333	-172.99	8.7318	38.4471	-154.239	-0.278447	16.4106	-143.06	-3.82719	0.841648	-129.685	-6.7183	-15.4491	-175.323	11.6814	-29.9304	-169.184	5.95131	-54.5511	-163.479	3.94456	-73.8503	-198.444	6.91018	-37.1536	-194.254	1.82238	-62.1959	-192.423	-1.94353	-84.5923	-213.696	2.47028	-33.5579	-216.313	-2.18594	-55.4168	-215.054	-5.87975	-77.5539	-236.683	-3.89744	-21.9167	-238.983	-6.95986	-36.351	-243.117	-8.15289	-55.0322	-221.342	16.2805	12.2334	-221.083	23.0958	32.1343	-196.751	26.2234	19.6689	
17	0.141667	-172.413	11.4913	34.7876	-157.843	0.00804472	18.7153	-144.416	-3.70692	0.304029	-130.534	-7.17266	-15.3805	-174.271	15.8826	-30.3651	-170.723	9.93576	-55.8657	-164.539	7.41875	-74.541	-197.885	9.34625	-42.8713	-192.945	4.41904	-62.5683	-193.442	-2.26379	-90.4239	-218.416	2.96006	-35.4912	-217.942	-1.85829	-54.2502	-211.367	-7.12584	-76.6281	-235.393	-3.24482	-20.6173	-241.515	-8.46123	-39.719	-243.982	-9.54633	-54.1376	-221.116	17.4983	8.36025	-225.387	21.9665	30.7851	-200.791	27.3043	20.3506	
18	0.15	-173.172	13.9328	32.1344	-160.065	2.06901	17.175	-143.067	-1.83029	-4.61438	-135.781	-6.29372	-18.7509	-177.778	17.6484	-31.1693	-170.957	14.4594	-54.6213	-167.909	10.0972	-76.4907	-199.211	12.1654	-40.6452	-196.887	4.33911	-67.6287	-195.198	-1.31089	-86.481	-219.251	2.94177	-34.1823	-219.61	-4.35688	-57.7326	-214.171	-10.5072	-79.8087	-236.963	-5.6098	-21.0938	-239.77	-9.66486	-41.4638	-243.033	-10.7063	-55.8703	-222.207	16.6419	9.65671	-228.189	22.3185	33.1082	-203.484	25.909	20.8596	
